<svg version="1.1" xmlns="http://www.w3.org/2000/svg" viewBox="0 0 62.80598840713026 61.86738640827589" width="62.80598840713026" height="61.86738640827589">
  <!-- svg-source:excalidraw -->
  
  <defs>
    <style class="style-fonts">
      @font-face {
        font-family: "Virgil";
        src: url("https://excalidraw.com/Virgil.woff2");
      }
      @font-face {
        font-family: "Cascadia";
        src: url("https://excalidraw.com/Cascadia.woff2");
      }
    </style>
  </defs>
  <g stroke-linecap="round" transform="translate(16.81933239289765 10) rotate(0 10.045910017426422 10.045910017426422)"><path d="M20.09 10.05 C20.09 10.63, 20.04 11.22, 19.94 11.79 C19.84 12.36, 19.68 12.94, 19.49 13.48 C19.29 14.03, 19.04 14.57, 18.75 15.07 C18.46 15.57, 18.12 16.06, 17.74 16.5 C17.37 16.95, 16.95 17.37, 16.5 17.74 C16.06 18.12, 15.57 18.46, 15.07 18.75 C14.57 19.04, 14.03 19.29, 13.48 19.49 C12.94 19.68, 12.36 19.84, 11.79 19.94 C11.22 20.04, 10.63 20.09, 10.05 20.09 C9.46 20.09, 8.87 20.04, 8.3 19.94 C7.73 19.84, 7.16 19.68, 6.61 19.49 C6.06 19.29, 5.53 19.04, 5.02 18.75 C4.52 18.46, 4.03 18.12, 3.59 17.74 C3.14 17.37, 2.72 16.95, 2.35 16.5 C1.98 16.06, 1.64 15.57, 1.35 15.07 C1.06 14.57, 0.8 14.03, 0.61 13.48 C0.41 12.94, 0.25 12.36, 0.15 11.79 C0.05 11.22, 0 10.63, 0 10.05 C0 9.46, 0.05 8.87, 0.15 8.3 C0.25 7.73, 0.41 7.16, 0.61 6.61 C0.8 6.06, 1.06 5.53, 1.35 5.02 C1.64 4.52, 1.98 4.03, 2.35 3.59 C2.72 3.14, 3.14 2.72, 3.59 2.35 C4.03 1.98, 4.52 1.64, 5.02 1.35 C5.53 1.06, 6.06 0.8, 6.61 0.61 C7.16 0.41, 7.73 0.25, 8.3 0.15 C8.87 0.05, 9.46 0, 10.05 0 C10.63 0, 11.22 0.05, 11.79 0.15 C12.36 0.25, 12.94 0.41, 13.48 0.61 C14.03 0.8, 14.57 1.06, 15.07 1.35 C15.57 1.64, 16.06 1.98, 16.5 2.35 C16.95 2.72, 17.37 3.14, 17.74 3.59 C18.12 4.03, 18.46 4.52, 18.75 5.02 C19.04 5.53, 19.29 6.06, 19.49 6.61 C19.68 7.16, 19.84 7.73, 19.94 8.3 C20.04 8.87, 20.07 9.76, 20.09 10.05 C20.12 10.34, 20.12 9.76, 20.09 10.05" stroke="none" stroke-width="0" fill="#339989"></path><path d="M20.09 10.05 C20.09 10.63, 20.04 11.22, 19.94 11.79 C19.84 12.36, 19.68 12.94, 19.49 13.48 C19.29 14.03, 19.04 14.57, 18.75 15.07 C18.46 15.57, 18.12 16.06, 17.74 16.5 C17.37 16.95, 16.95 17.37, 16.5 17.74 C16.06 18.12, 15.57 18.46, 15.07 18.75 C14.57 19.04, 14.03 19.29, 13.48 19.49 C12.94 19.68, 12.36 19.84, 11.79 19.94 C11.22 20.04, 10.63 20.09, 10.05 20.09 C9.46 20.09, 8.87 20.04, 8.3 19.94 C7.73 19.84, 7.16 19.68, 6.61 19.49 C6.06 19.29, 5.53 19.04, 5.02 18.75 C4.52 18.46, 4.03 18.12, 3.59 17.74 C3.14 17.37, 2.72 16.95, 2.35 16.5 C1.98 16.06, 1.64 15.57, 1.35 15.07 C1.06 14.57, 0.8 14.03, 0.61 13.48 C0.41 12.94, 0.25 12.36, 0.15 11.79 C0.05 11.22, 0 10.63, 0 10.05 C0 9.46, 0.05 8.87, 0.15 8.3 C0.25 7.73, 0.41 7.16, 0.61 6.61 C0.8 6.06, 1.06 5.53, 1.35 5.02 C1.64 4.52, 1.98 4.03, 2.35 3.59 C2.72 3.14, 3.14 2.72, 3.59 2.35 C4.03 1.98, 4.52 1.64, 5.02 1.35 C5.53 1.06, 6.06 0.8, 6.61 0.61 C7.16 0.41, 7.73 0.25, 8.3 0.15 C8.87 0.05, 9.46 0, 10.05 0 C10.63 0, 11.22 0.05, 11.79 0.15 C12.36 0.25, 12.94 0.41, 13.48 0.61 C14.03 0.8, 14.57 1.06, 15.07 1.35 C15.57 1.64, 16.06 1.98, 16.5 2.35 C16.95 2.72, 17.37 3.14, 17.74 3.59 C18.12 4.03, 18.46 4.52, 18.75 5.02 C19.04 5.53, 19.29 6.06, 19.49 6.61 C19.68 7.16, 19.84 7.73, 19.94 8.3 C20.04 8.87, 20.07 9.76, 20.09 10.05 C20.12 10.34, 20.12 9.76, 20.09 10.05" stroke="#339989" stroke-width="1" fill="none"></path></g><g stroke-linecap="round" transform="translate(32.71416837227741 26.707115579609066) rotate(0 10.045910017426422 10.045910017426422)"><path d="M20.09 10.05 C20.09 10.63, 20.04 11.22, 19.94 11.79 C19.84 12.36, 19.68 12.94, 19.49 13.48 C19.29 14.03, 19.04 14.57, 18.75 15.07 C18.46 15.57, 18.12 16.06, 17.74 16.5 C17.37 16.95, 16.95 17.37, 16.5 17.74 C16.06 18.12, 15.57 18.46, 15.07 18.75 C14.57 19.04, 14.03 19.29, 13.48 19.49 C12.94 19.68, 12.36 19.84, 11.79 19.94 C11.22 20.04, 10.63 20.09, 10.05 20.09 C9.46 20.09, 8.87 20.04, 8.3 19.94 C7.73 19.84, 7.16 19.68, 6.61 19.49 C6.06 19.29, 5.53 19.04, 5.02 18.75 C4.52 18.46, 4.03 18.12, 3.59 17.74 C3.14 17.37, 2.72 16.95, 2.35 16.5 C1.98 16.06, 1.64 15.57, 1.35 15.07 C1.06 14.57, 0.8 14.03, 0.61 13.48 C0.41 12.94, 0.25 12.36, 0.15 11.79 C0.05 11.22, 0 10.63, 0 10.05 C0 9.46, 0.05 8.87, 0.15 8.3 C0.25 7.73, 0.41 7.16, 0.61 6.61 C0.8 6.06, 1.06 5.53, 1.35 5.02 C1.64 4.52, 1.98 4.03, 2.35 3.59 C2.72 3.14, 3.14 2.72, 3.59 2.35 C4.03 1.98, 4.52 1.64, 5.02 1.35 C5.53 1.06, 6.06 0.8, 6.61 0.61 C7.16 0.41, 7.73 0.25, 8.3 0.15 C8.87 0.05, 9.46 0, 10.05 0 C10.63 0, 11.22 0.05, 11.79 0.15 C12.36 0.25, 12.94 0.41, 13.48 0.61 C14.03 0.8, 14.57 1.06, 15.07 1.35 C15.57 1.64, 16.06 1.98, 16.5 2.35 C16.95 2.72, 17.37 3.14, 17.74 3.59 C18.12 4.03, 18.46 4.52, 18.75 5.02 C19.04 5.53, 19.29 6.06, 19.49 6.61 C19.68 7.16, 19.84 7.73, 19.94 8.3 C20.04 8.87, 20.07 9.76, 20.09 10.05 C20.12 10.34, 20.12 9.76, 20.09 10.05" stroke="none" stroke-width="0" fill="#339989"></path><path d="M20.09 10.05 C20.09 10.63, 20.04 11.22, 19.94 11.79 C19.84 12.36, 19.68 12.94, 19.49 13.48 C19.29 14.03, 19.04 14.57, 18.75 15.07 C18.46 15.57, 18.12 16.06, 17.74 16.5 C17.37 16.95, 16.95 17.37, 16.5 17.74 C16.06 18.12, 15.57 18.46, 15.07 18.75 C14.57 19.04, 14.03 19.29, 13.48 19.49 C12.94 19.68, 12.36 19.84, 11.79 19.94 C11.22 20.04, 10.63 20.09, 10.05 20.09 C9.46 20.09, 8.87 20.04, 8.3 19.94 C7.73 19.84, 7.16 19.68, 6.61 19.49 C6.06 19.29, 5.53 19.04, 5.02 18.75 C4.52 18.46, 4.03 18.12, 3.59 17.74 C3.14 17.37, 2.72 16.95, 2.35 16.5 C1.98 16.06, 1.64 15.57, 1.35 15.07 C1.06 14.57, 0.8 14.03, 0.61 13.48 C0.41 12.94, 0.25 12.36, 0.15 11.79 C0.05 11.22, 0 10.63, 0 10.05 C0 9.46, 0.05 8.87, 0.15 8.3 C0.25 7.73, 0.41 7.16, 0.61 6.61 C0.8 6.06, 1.06 5.53, 1.35 5.02 C1.64 4.52, 1.98 4.03, 2.35 3.59 C2.72 3.14, 3.14 2.72, 3.59 2.35 C4.03 1.98, 4.52 1.64, 5.02 1.35 C5.53 1.06, 6.06 0.8, 6.61 0.61 C7.16 0.41, 7.73 0.25, 8.3 0.15 C8.87 0.05, 9.46 0, 10.05 0 C10.63 0, 11.22 0.05, 11.79 0.15 C12.36 0.25, 12.94 0.41, 13.48 0.61 C14.03 0.8, 14.57 1.06, 15.07 1.35 C15.57 1.64, 16.06 1.98, 16.5 2.35 C16.95 2.72, 17.37 3.14, 17.74 3.59 C18.12 4.03, 18.46 4.52, 18.75 5.02 C19.04 5.53, 19.29 6.06, 19.49 6.61 C19.68 7.16, 19.84 7.73, 19.94 8.3 C20.04 8.87, 20.07 9.76, 20.09 10.05 C20.12 10.34, 20.12 9.76, 20.09 10.05" stroke="#339989" stroke-width="1" fill="none"></path></g><g stroke-linecap="round" transform="translate(10 31.775566373423047) rotate(0 10.045910017426422 10.045910017426422)"><path d="M20.09 10.05 C20.09 10.63, 20.04 11.22, 19.94 11.79 C19.84 12.36, 19.68 12.94, 19.49 13.48 C19.29 14.03, 19.04 14.57, 18.75 15.07 C18.46 15.57, 18.12 16.06, 17.74 16.5 C17.37 16.95, 16.95 17.37, 16.5 17.74 C16.06 18.12, 15.57 18.46, 15.07 18.75 C14.57 19.04, 14.03 19.29, 13.48 19.49 C12.94 19.68, 12.36 19.84, 11.79 19.94 C11.22 20.04, 10.63 20.09, 10.05 20.09 C9.46 20.09, 8.87 20.04, 8.3 19.94 C7.73 19.84, 7.16 19.68, 6.61 19.49 C6.06 19.29, 5.53 19.04, 5.02 18.75 C4.52 18.46, 4.03 18.12, 3.59 17.74 C3.14 17.37, 2.72 16.95, 2.35 16.5 C1.98 16.06, 1.64 15.57, 1.35 15.07 C1.06 14.57, 0.8 14.03, 0.61 13.48 C0.41 12.94, 0.25 12.36, 0.15 11.79 C0.05 11.22, 0 10.63, 0 10.05 C0 9.46, 0.05 8.87, 0.15 8.3 C0.25 7.73, 0.41 7.16, 0.61 6.61 C0.8 6.06, 1.06 5.53, 1.35 5.02 C1.64 4.52, 1.98 4.03, 2.35 3.59 C2.72 3.14, 3.14 2.72, 3.59 2.35 C4.03 1.98, 4.52 1.64, 5.02 1.35 C5.53 1.06, 6.06 0.8, 6.61 0.61 C7.16 0.41, 7.73 0.25, 8.3 0.15 C8.87 0.05, 9.46 0, 10.05 0 C10.63 0, 11.22 0.05, 11.79 0.15 C12.36 0.25, 12.94 0.41, 13.48 0.61 C14.03 0.8, 14.57 1.06, 15.07 1.35 C15.57 1.64, 16.06 1.98, 16.5 2.35 C16.95 2.72, 17.37 3.14, 17.74 3.59 C18.12 4.03, 18.46 4.52, 18.75 5.02 C19.04 5.53, 19.29 6.06, 19.49 6.61 C19.68 7.16, 19.84 7.73, 19.94 8.3 C20.04 8.87, 20.07 9.76, 20.09 10.05 C20.12 10.34, 20.12 9.76, 20.09 10.05" stroke="none" stroke-width="0" fill="#339989"></path><path d="M20.09 10.05 C20.09 10.63, 20.04 11.22, 19.94 11.79 C19.84 12.36, 19.68 12.94, 19.49 13.48 C19.29 14.03, 19.04 14.57, 18.75 15.07 C18.46 15.57, 18.12 16.06, 17.74 16.5 C17.37 16.95, 16.95 17.37, 16.5 17.74 C16.06 18.12, 15.57 18.46, 15.07 18.75 C14.57 19.04, 14.03 19.29, 13.48 19.49 C12.94 19.68, 12.36 19.84, 11.79 19.94 C11.22 20.04, 10.63 20.09, 10.05 20.09 C9.46 20.09, 8.87 20.04, 8.3 19.94 C7.73 19.84, 7.16 19.68, 6.61 19.49 C6.06 19.29, 5.53 19.04, 5.02 18.75 C4.52 18.46, 4.03 18.12, 3.59 17.74 C3.14 17.37, 2.72 16.95, 2.35 16.5 C1.98 16.06, 1.64 15.57, 1.35 15.07 C1.06 14.57, 0.8 14.03, 0.61 13.48 C0.41 12.94, 0.25 12.36, 0.15 11.79 C0.05 11.22, 0 10.63, 0 10.05 C0 9.46, 0.05 8.87, 0.15 8.3 C0.25 7.73, 0.41 7.16, 0.61 6.61 C0.8 6.06, 1.06 5.53, 1.35 5.02 C1.64 4.52, 1.98 4.03, 2.35 3.59 C2.72 3.14, 3.14 2.72, 3.59 2.35 C4.03 1.98, 4.52 1.64, 5.02 1.35 C5.53 1.06, 6.06 0.8, 6.61 0.61 C7.16 0.41, 7.73 0.25, 8.3 0.15 C8.87 0.05, 9.46 0, 10.05 0 C10.63 0, 11.22 0.05, 11.79 0.15 C12.36 0.25, 12.94 0.41, 13.48 0.61 C14.03 0.8, 14.57 1.06, 15.07 1.35 C15.57 1.64, 16.06 1.98, 16.5 2.35 C16.95 2.72, 17.37 3.14, 17.74 3.59 C18.12 4.03, 18.46 4.52, 18.75 5.02 C19.04 5.53, 19.29 6.06, 19.49 6.61 C19.68 7.16, 19.84 7.73, 19.94 8.3 C20.04 8.87, 20.07 9.76, 20.09 10.05 C20.12 10.34, 20.12 9.76, 20.09 10.05" stroke="#339989" stroke-width="1" fill="none"></path></g></svg>