<svg fill="none" viewBox="0 0 15 15" xmlns="http://www.w3.org/2000/svg"><path d="M14.5 7.584c0 1.657-3.134 3-7 3s-7-1.343-7-3 3.134-3 7-3 7 1.343 7 3Z" stroke="#131515" class="stroke-000000"></path><path d="M4.166 13.739c1.457.79 4.13-1.327 5.972-4.726 1.841-3.4 2.153-6.795.696-7.584-1.457-.79-4.13 1.327-5.972 4.726-1.841 3.4-2.153 6.795-.696 7.584Z" stroke="#131515" class="stroke-000000"></path><path d="M10.834 13.739c-1.457.79-4.13-1.327-5.972-4.726-1.841-3.4-2.153-6.795-.696-7.584 1.457-.79 4.13 1.327 5.972 4.726 1.841 3.4 2.153 6.795.696 7.584Z" stroke="#131515" class="stroke-000000"></path><path d="M6.5 7.584a1 1 0 1 0 2 0 1 1 0 0 0-2 0Z" stroke="#131515" class="stroke-000000"></path></svg>